<svg xmlns="http://www.w3.org/2000/svg">
  <defs>
    <symbol id="twitter-x" viewBox="0 0 16 16">
      <path fill-rule="evenodd" clip-rule="evenodd" d="M0.5 0.5H5.75L9.48421 5.71053L14 0.5H16L10.3895 6.97368L16.5 15.5H11.25L7.51579 10.2895L3 15.5H1L6.61053 9.02632L0.5 0.5ZM12.0204 14L3.42043 2H4.97957L13.5796 14H12.0204Z"/>
    </symbol>
    <symbol id="github" viewBox="0 0 16 16">
      <path fill-rule="evenodd" clip-rule="evenodd" d="M8 0C3.58 0 0 3.57879 0 7.99729C0 11.5361 2.29 14.5251 5.47 15.5847C5.87 15.6547 6.02 15.4148 6.02 15.2049C6.02 15.0149 6.01 14.3851 6.01 13.7154C4 14.0852 3.48 13.2255 3.32 12.7757C3.23 12.5458 2.84 11.836 2.5 11.6461C2.22 11.4961 1.82 11.1262 2.49 11.1162C3.12 11.1062 3.57 11.696 3.72 11.936C4.44 13.1455 5.59 12.8057 6.05 12.5957C6.12 12.0759 6.33 11.726 6.56 11.5261C4.78 11.3262 2.92 10.6364 2.92 7.57743C2.92 6.70773 3.23 5.98797 3.74 5.42816C3.66 5.22823 3.38 4.40851 3.82 3.30888C3.82 3.30888 4.49 3.09895 6.02 4.1286C6.66 3.94866 7.34 3.85869 8.02 3.85869C8.7 3.85869 9.38 3.94866 10.02 4.1286C11.55 3.08895 12.22 3.30888 12.22 3.30888C12.66 4.40851 12.38 5.22823 12.3 5.42816C12.81 5.98797 13.12 6.69773 13.12 7.57743C13.12 10.6464 11.25 11.3262 9.47 11.5261C9.76 11.776 10.01 12.2558 10.01 13.0056C10.01 14.0752 10 14.9349 10 15.2049C10 15.4148 10.15 15.6647 10.55 15.5847C12.1381 15.0488 13.5182 14.0284 14.4958 12.6673C15.4735 11.3062 15.9996 9.67293 16 7.99729C16 3.57879 12.42 0 8 0Z"/>
    </symbol>
    <symbol id="linkedin" viewBox="0 0 16 16">
      <path fill-rule="evenodd" clip-rule="evenodd" d="M2 0C0.895431 0 0 0.895431 0 2V14C0 15.1046 0.895431 16 2 16H14C15.1046 16 16 15.1046 16 14V2C16 0.895431 15.1046 0 14 0H2ZM5 6.75V13H3V6.75H5ZM5 4.50008C5 5.05554 4.61409 5.5 3.99408 5.5H3.98249C3.38582 5.5 3 5.05554 3 4.50008C3 3.93213 3.39765 3.5 4.00584 3.5C4.61409 3.5 4.98845 3.93213 5 4.50008ZM8.5 13H6.5C6.5 13 6.53178 7.43224 6.50007 6.75H8.5V7.78371C8.5 7.78371 9 6.75 10.5 6.75C12 6.75 13 7.59782 13 9.83107V13H11V10.1103C11 10.1103 11 8.46616 9.7361 8.46616C8.4722 8.46616 8.5 9.93972 8.5 9.93972V13Z"/>
    </symbol>
    <symbol id="email" viewBox="0 0 16 16">
      <path fill-rule="evenodd" clip-rule="evenodd" d="M13.2642 3.5H2.73578L8 8.01219L13.2642 3.5ZM1.5 4.41638V11.5C1.5 12.0523 1.94772 12.5 2.5 12.5H13.5C14.0523 12.5 14.5 12.0523 14.5 11.5V4.41638L8.48809 9.56944L8 9.98781L7.51191 9.56944L1.5 4.41638ZM0 2H1.5H14.5H16V3.5V11.5C16 12.8807 14.8807 14 13.5 14H2.5C1.11929 14 0 12.8807 0 11.5V3.5V2Z"/>
    </symbol>
    <symbol id="codepen" viewBox="0 0 16 16">
      <path fill-rule="evenodd" clip-rule="evenodd" d="M8 0.0994263L8.40611 0.360987L15.6561 5.03048L16 5.25197V5.66102V10.3305V10.7396L15.6561 10.961L8.40611 15.6305L8 15.8921L7.59389 15.6305L0.343892 10.961L0 10.7396V10.3305V5.66102V5.25197L0.343892 5.03048L7.59389 0.360987L8 0.0994263ZM1.5 9.16029L3.24781 7.99577L1.5 6.83124V9.16029ZM2.0654 5.70591L4.375 7.24474L7.375 5.24591L7.375 2.28616L2.0654 5.70591ZM11.625 7.24474L8.625 5.24591V2.28616L13.9346 5.70591L11.625 7.24474ZM14.5 6.83124L12.7522 7.99577L14.5 9.16029V6.83124ZM10.4978 7.99577L8 6.33153L5.50219 7.99577L8 9.66L10.4978 7.99577ZM7.375 10.7456L4.375 8.74679L2.0654 10.2856L7.375 13.7054V10.7456ZM8.625 13.7054L13.9346 10.2856L11.625 8.74679L8.625 10.7456V13.7054Z"/>
    </symbol>
    <symbol id="dribbble" viewBox="0 0 16 16">
      <path fill-rule="evenodd" clip-rule="evenodd" d="M8 0C3.58083 0 0 3.58293 0 7.9988C0 12.1959 3.23798 15.6406 7.35096 15.9712V16H8C12.4195 16 16 12.4171 16 8.0012C16 3.58654 12.4198 0 8 0ZM9.76833 14.4663C9.47897 14.5457 9.18179 14.6058 8.87831 14.6454C8.70012 14.6683 8.51953 14.6851 8.33714 14.6935L8.19892 14.6995H8C7.09706 14.6995 6.23558 14.5204 5.44922 14.1959C6.21064 11.4531 8.27434 9.48918 10.6367 8.61058C11.0448 10.5877 10.7488 12.7031 9.76833 14.4663ZM10.2773 7.36058C7.58113 8.33173 5.22596 10.5192 4.27975 13.5721C2.48227 12.3702 1.29778 10.3221 1.29778 7.9988C1.29778 7.63822 1.32662 7.28365 1.38191 6.9387C1.45252 6.49519 1.56701 6.06731 1.72055 5.65745C2.53155 6.0613 3.39844 6.34736 4.28996 6.50601C5.42638 6.71394 6.59105 6.70793 7.72416 6.50361C8.36929 6.38702 8.9991 6.20192 9.60307 5.95433C9.8717 6.40144 10.0977 6.87139 10.2773 7.36058ZM11.8882 8.2524C12.2779 10.0517 12.1599 11.9579 11.5382 13.6935C13.3831 12.5445 14.6283 10.524 14.6989 8.20913C13.7819 8.04327 12.8257 8.0625 11.8882 8.2524ZM14.6091 6.88101C13.5935 6.73798 12.5487 6.78486 11.5282 7.0024C11.3272 6.4387 11.0736 5.89663 10.7713 5.38101C11.6097 4.89663 12.3753 4.28606 13.0334 3.57572C13.8383 4.49159 14.3978 5.6274 14.6091 6.88101ZM3.30168 4.91466C2.95613 4.79688 2.61869 4.65625 2.29207 4.49279C2.89844 3.51202 3.7506 2.69832 4.76112 2.13822C4.76112 2.13822 4.97656 2.20553 5.07782 2.24279L5.1872 2.28365L5.20643 2.29087L5.24099 2.30529C5.38371 2.35817 5.51172 2.40745 5.62079 2.45913L5.65565 2.47596L5.66406 2.47957L5.95313 2.61659L6.09856 2.6863L6.1869 2.73558L6.23798 2.76683L6.29207 2.79688L6.33413 2.82091L6.34615 2.82692L6.39964 2.85817L6.561 2.95072L6.67758 3.02043L6.72145 3.04808L6.7509 3.07091L6.78245 3.08894C6.8149 3.10817 6.84706 3.12981 6.88251 3.15505L6.91647 3.17788L6.9375 3.19231L7.02734 3.25361L7.04988 3.26923L7.06911 3.28005L7.11118 3.30889L7.22987 3.39663L7.36058 3.49519L7.46334 3.56971C7.96124 3.95072 8.41647 4.38582 8.82151 4.86538C8.62019 4.9387 8.41587 5.00481 8.20944 5.0625C7.97386 5.1274 7.73498 5.18269 7.49369 5.22596C6.50751 5.40385 5.5 5.40865 4.52284 5.22957C4.10547 5.15505 3.69832 5.05048 3.30168 4.91466ZM10.0631 1.6226C10.8023 1.86058 11.485 2.22476 12.0868 2.6887C11.4937 3.33053 10.799 3.8762 10.0385 4.30409C9.51502 3.63942 8.91076 3.04087 8.23678 2.52764L8.22055 2.51563L8.19892 2.5012L8.1845 2.49038L8.13822 2.45673L8.06881 2.40385L8.00992 2.35938L7.86719 2.25481L7.85186 2.24399L7.83594 2.23317C7.80769 2.21274 7.77464 2.1899 7.74069 2.16947L7.71064 2.14904C7.64904 2.10577 7.55619 2.04207 7.47176 1.99038C7.39303 1.9351 7.28666 1.87139 7.21695 1.83053L7.03095 1.72356L6.99669 1.70433L6.97776 1.69351L6.95433 1.68029L6.92368 1.66346L6.89002 1.64423L6.8729 1.63341L6.75481 1.5649L6.70944 1.54087L6.69712 1.53486L6.68209 1.52644L6.66677 1.51923L6.53786 1.45793C7.00841 1.35337 7.4979 1.29808 8 1.29808C8.71995 1.29808 9.41316 1.41226 10.0631 1.6226Z"/>
    </symbol>
  </defs>
</svg>